<?xml version="1.0" standalone="no"?>
<!DOCTYPE svg PUBLIC "-//W3C//DTD SVG 20010904//EN" "http://www.w3.org/TR/2001/REC-SVG-20010904/DTD/svg10.dtd">
<svg version="1.0" xmlns="http://www.w3.org/2000/svg" width="50.000000pt" height="50.000000pt"
    viewBox="0 0 500.000000 500.000000" preserveAspectRatio="xMidYMid meet">

    <g transform="translate(0.000000,500.000000) scale(0.100000,-0.100000)" fill="#000000" stroke="none">
        <path d="M760 2500 l0 -480 1740 0 1740 0 0 480 0 480 -1740 0 -1740 0 0 -480z
m3450 0 l0 -450 -1715 0 -1715 0 0 450 0 450 1715 0 1715 0 0 -450z" />
        <path d="M850 2500 l0 -390 825 0 825 0 0 390 0 390 -825 0 -825 0 0 -390z
m620 75 l0 -55 34 0 c39 0 70 31 81 80 5 21 13 30 26 30 25 0 24 -4 -11 -75
l-29 -60 35 -62 c31 -56 33 -63 16 -63 -12 0 -30 20 -52 60 -31 54 -37 60 -67
60 l-33 0 0 -60 c0 -47 -3 -60 -15 -60 -13 0 -15 21 -15 130 0 109 2 130 15
130 12 0 15 -13 15 -55z m416 -77 c45 -110 50 -128 34 -128 -10 0 -23 12 -30
30 -12 29 -15 30 -77 30 -62 0 -64 -1 -74 -30 -7 -19 -18 -30 -29 -30 -20 0
-23 -11 76 228 24 58 42 39 100 -100z" />
        <path d="M1792 2531 c-12 -30 -22 -58 -22 -62 0 -5 20 -9 45 -9 52 0 53 4 21
74 l-22 50 -22 -53z" />
        <path d="M3130 2510 l0 -130 40 0 c38 0 40 2 40 30 0 27 4 30 42 37 28 4 53
17 72 35 25 25 28 34 23 71 -9 67 -40 87 -138 87 l-79 0 0 -130z m128 61 c8
-4 12 -19 10 -32 -2 -18 -10 -25 -30 -27 -26 -3 -28 -1 -28 32 0 37 17 47 48
27z" />
        <path d="M3413 2513 l-50 -128 36 -3 c27 -3 39 1 50 17 19 30 96 30 104 1 4
-16 14 -20 46 -20 l41 0 -26 68 c-14 37 -36 94 -49 127 -22 58 -24 60 -62 63
l-40 3 -50 -128z m106 -4 c14 -41 15 -39 -14 -39 -26 0 -29 9 -19 48 9 31 20
28 33 -9z" />
    </g>
</svg>